<svg width="639" height="691" xmlns="http://www.w3.org/2000/svg" xmlns:xlink="http://www.w3.org/1999/xlink" overflow="hidden"><defs><clipPath id="clip0"><rect x="320" y="33" width="639" height="691"/></clipPath></defs><g clip-path="url(#clip0)" transform="translate(-320 -33)"><path d="M575.674 523.153 594.156 555.164 507.763 605.043 489.282 573.032Z" fill="#FF0038" fill-rule="evenodd"/><path d="M681.429 92.3191 699.91 124.33 507.846 235.219 489.364 203.208Z" fill="#FF0038" fill-rule="evenodd"/><rect x="489" y="204" width="37" height="369" fill="#FF0038"/><rect x="670" y="439" width="30" height="55" fill="#FF0038"/><path d="M668.228 67.5144C674.079 61.7575 806.447 105.301 854.677 153.35 902.906 201.398 963.458 350.052 957.606 355.809 951.755 361.566 867.794 235.94 819.565 187.891 771.335 139.842 662.376 73.2712 668.228 67.5144Z" fill="#00CFFA" fill-rule="evenodd"/><path d="M812.585 125.742C820.524 123.67 913.112 227.471 930.735 293.201 948.358 358.93 926.261 518.048 918.322 520.121 910.382 522.193 900.722 371.365 883.099 305.635 865.476 239.906 804.646 127.815 812.585 125.742Z" fill="#00CFFA" fill-rule="evenodd"/><path d="M906.217 237.512C914.129 239.687 942.412 375.876 924.809 441.61 907.206 507.345 808.51 634.097 800.599 631.922 792.687 629.747 859.735 494.295 877.338 428.561 894.941 362.826 898.305 235.337 906.217 237.512Z" fill="#00CFFA" fill-rule="evenodd"/><path d="M932.486 380.228C938.243 386.079 894.699 518.447 846.65 566.677 798.602 614.906 649.948 675.458 644.191 669.606 638.434 663.755 764.06 579.794 812.109 531.565 860.158 483.335 926.729 374.376 932.486 380.228Z" fill="#00CFFA" fill-rule="evenodd"/><path d="M881.95 525.168C884.023 533.107 780.221 625.696 714.492 643.318 648.763 660.941 489.644 638.844 487.572 630.905 485.499 622.965 636.328 613.305 702.058 595.682 767.787 578.059 879.878 517.229 881.95 525.168Z" fill="#00CFFA" fill-rule="evenodd"/><path d="M760.457 622.087C758.282 629.999 622.093 658.282 556.358 640.679 490.623 623.076 363.872 524.38 366.047 516.468 368.221 508.556 503.673 575.604 569.408 593.207 635.143 610.81 762.631 614.175 760.457 622.087Z" fill="#00CFFA" fill-rule="evenodd"/><path d="M609.773 645.484C603.941 651.261 472.03 607.567 423.967 559.352 375.903 511.136 315.56 361.968 321.392 356.192 327.224 350.415 410.895 476.476 458.958 524.691 507.021 572.906 615.605 639.707 609.773 645.484Z" fill="#00CFFA" fill-rule="evenodd"/><path d="M467.415 595.49C459.476 597.562 366.887 493.761 349.265 428.031 331.642 362.302 353.739 203.184 361.678 201.111 369.618 199.039 379.278 349.867 396.901 415.597 414.524 481.326 475.354 593.417 467.415 595.49Z" fill="#00CFFA" fill-rule="evenodd"/><path d="M367.775 474.028C359.863 471.853 331.58 335.664 349.183 269.93 366.786 204.195 465.481 77.4432 473.393 79.6181 481.305 81.7929 414.257 217.245 396.654 282.979 379.051 348.714 375.686 476.203 367.775 474.028Z" fill="#00CFFA" fill-rule="evenodd"/><path d="M348.514 322.772C342.758 316.92 386.301 184.553 434.35 136.323 482.399 88.0934 631.052 27.5415 636.809 33.3935 642.566 39.2454 516.94 123.206 468.891 171.435 420.842 219.665 354.271 328.624 348.514 322.772Z" fill="#00CFFA" fill-rule="evenodd"/><path d="M397.677 179.758C395.604 171.819 499.406 79.2305 565.135 61.6077 630.865 43.9849 789.983 66.0821 792.055 74.0214 794.128 81.9607 643.299 91.6213 577.57 109.244 511.84 126.867 399.749 187.697 397.677 179.758Z" fill="#00CFFA" fill-rule="evenodd"/><path d="M517.652 81.7688C519.827 73.857 656.016 45.5739 721.75 63.1768 787.485 80.7797 914.237 179.476 912.062 187.387 909.887 195.299 774.435 128.251 708.701 110.648 642.966 93.0454 515.477 89.6807 517.652 81.7688Z" fill="#00CFFA" fill-rule="evenodd"/><path d="M673.111 321.423 699.911 333.92 606.183 534.919 579.383 522.422Z" fill="#FFCE38" fill-rule="evenodd"/><path d="M673.433 321.425 700.233 308.928 887.687 710.925 860.888 723.422Z" fill="#FFCE38" fill-rule="evenodd"/><path d="M681.43 462.16 699.912 494.171 592.191 556.364 573.709 524.353Z" fill="#FF0038" fill-rule="evenodd"/></g></svg>